Coordinates
version=1
nRows=22
nColumns=24
inDegrees=yes

Units are S.I. units (second, meters, Newtons, ...)
Angles are in degrees.

endheader
time	pelvis_tilt	pelvis_list	pelvis_rotation	pelvis_tx	pelvis_ty	pelvis_tz	hip_flexion_r	hip_adduction_r	hip_rotation_r	knee_angle_r	ankle_angle_r	subtalar_angle_r	mtp_angle_r	hip_flexion_l	hip_adduction_l	hip_rotation_l	knee_angle_l	ankle_angle_l	subtalar_angle_l	mtp_angle_l	lumbar_extension	lumbar_bending	lumbar_rotation
      0.90883333	     -4.05958225	      1.01678942	     -3.12710246	     -0.16605562	      0.88817908	      0.34829145	     -9.98228568	      3.54491350	     -0.22701982	    -10.63033123	     22.09955310	      9.69978726	      7.07824218	     32.88644340	      0.92647730	     -7.30175490	    -19.92785104	      4.42927931	     -3.99960797	     -0.79736317	     -4.63745931	     -0.81047165	      8.91948183
      0.91300000	     -4.15520836	      1.04608163	     -3.25593754	     -0.16020707	      0.88678687	      0.34829743	     -9.98118192	      3.44115998	     -0.25219972	    -11.29420900	     22.39828321	     10.00501168	      7.25461956	     32.90590276	      0.97435139	     -7.32598075	    -19.68553733	      4.48305955	     -3.97813260	     -0.81996986	     -4.46697617	     -0.88593306	      9.00605618
      0.91716667	     -4.24214602	      1.08672224	     -3.36092346	     -0.15432171	      0.88543885	      0.34824562	     -9.96104624	      3.31991116	     -0.35169704	    -12.01975424	     22.66785557	     10.35033140	      7.53078799	     32.91421723	      1.04959353	     -7.32659935	    -19.54546659	      4.55396459	     -4.01634780	     -0.83789122	     -4.30099077	     -0.96977539	      9.09948359
      0.92133333	     -4.35926740	      1.11993617	     -3.47893637	     -0.14844665	      0.88410462	      0.34824775	     -9.88261146	      3.21321669	     -0.36572048	    -12.79579560	     22.88539954	     10.62445149	      7.74283250	     32.95206707	      1.10034399	     -7.35136177	    -19.49558983	      4.54708459	     -4.05262798	     -0.83848014	     -4.10143523	     -1.05706672	      9.14339076
      0.92550000	     -4.46655008	      1.16846939	     -3.58150841	     -0.14254651	      0.88282963	      0.34819902	     -9.77912198	      3.08217860	     -0.44006445	    -13.64738455	     23.08090600	     10.94967012	      7.99189044	     32.97481892	      1.17832722	     -7.36237171	    -19.52967518	      4.53162792	     -4.16311228	     -0.82646565	     -3.91301257	     -1.16403398	      9.19395039
      0.92966667	     -4.56953209	      1.22508581	     -3.67032564	     -0.13661995	      0.88161463	      0.34812706	     -9.65200402	      2.93933844	     -0.54143962	    -14.55526984	     23.22373459	     11.27987533	      8.29592032	     32.99038875	      1.27135892	     -7.36760486	    -19.64832248	      4.48970683	     -4.33044662	     -0.79863454	     -3.72551848	     -1.27665906	      9.22538248
      0.93383333	     -4.66674689	      1.29489768	     -3.74203001	     -0.13066583	      0.88045649	      0.34801779	     -9.50665039	      2.77788572	     -0.67280737	    -15.51253541	     23.31947343	     11.64623304	      8.75749051	     33.00369719	      1.38772202	     -7.36019691	    -19.85602720	      4.43886478	     -4.58392758	     -0.74027405	     -3.54895127	     -1.43422109	      9.24697816
      0.93800000	     -4.79031210	      1.35413787	     -3.82562667	     -0.12474099	      0.87934148	      0.34794577	     -9.28993038	      2.63463424	     -0.71399093	    -16.55097078	     23.35545689	     11.89862200	      9.10734592	     33.03242502	      1.48118671	     -7.35046521	    -20.10288553	      4.32226842	     -4.77159335	     -0.68843524	     -3.34667780	     -1.55312765	      9.21631934
      0.94216667	     -4.86521981	      1.44011748	     -3.87996882	     -0.11873595	      0.87836793	      0.34779664	     -9.11016075	      2.44814759	     -0.85152960	    -17.60846397	     23.20909820	     12.12240659	     13.38223571	     32.99706728	      1.62851925	     -7.31776274	    -20.39234176	      4.18472740	     -5.16893690	      0.05760765	     -3.17811844	     -1.71442850	      9.15812239
      0.94633333	     -4.97114499	      1.51197292	     -3.95028292	     -0.11275949	      0.87740568	      0.34771001	     -8.85268137	      2.28445446	     -0.90085546	    -18.75761002	     23.11459046	     12.36865364	     13.44319532	     33.02376265	      1.72372691	     -7.38567726	    -20.80531119	      4.11003763	     -5.33590105	      0.07351014	     -2.98259580	     -1.87710248	      9.10542514
      0.95050000	     -5.07380847	      1.59727665	     -3.99431481	     -0.10676873	      0.87651210	      0.34754225	     -8.55108943	      2.09327504	     -1.03016484	    -19.99588597	     22.95678473	     12.68640086	     13.55840640	     33.03823245	      1.85903115	     -7.38176208	    -21.24236856	      4.00736121	     -5.64287939	      0.09803532	     -2.78572751	     -2.04067501	      9.03471490
      0.95466667	     -5.15843763	      1.68972814	     -4.02323590	     -0.10077358	      0.87572126	      0.34733653	     -8.22972636	      1.88619388	     -1.18342349	    -21.30209171	     22.72814863	     13.01491461	     13.73604168	     33.02894716	      2.01254638	     -7.35608115	    -21.70618480	      3.89030348	     -5.98385063	      0.13265652	     -2.61257072	     -2.21177737	      8.94637452
      0.95883333	     -5.22305202	      1.78721196	     -4.02502504	     -0.09479008	      0.87502242	      0.34704461	     -7.87908642	      1.65760441	     -1.41111564	    -22.70046401	     22.47909840	     13.40210463	     14.08388938	     32.99832668	      2.19293660	     -7.28474403	    -22.19312662	      3.74196048	     -6.38099625	      0.19523875	     -2.46716553	     -2.35131313	      8.84465712
      0.96300000	     -5.26358979	      1.89492200	     -4.02236537	     -0.08876545	      0.87446949	      0.34677594	     -7.54434951	      1.42144949	     -1.57212515	    -24.08414032	     21.93081832	     13.60919174	     18.75695143	     32.93247032	      2.38506157	     -7.20605218	    -22.69813171	      3.65157634	     -6.82196399	      0.99853049	     -2.35227663	     -2.56546190	      8.71829401
      0.96716667	     -5.32261196	      1.99611902	     -4.02972638	     -0.08278673	      0.87393165	      0.34652704	     -7.11943909	      1.18350191	     -1.72911325	    -25.60220351	     21.45813155	     13.92156292	     18.84024209	     32.91413891	      2.53611693	     -7.23065007	    -23.28558553	      3.63814652	     -7.02102900	      1.01449400	     -2.21050276	     -2.74114277	      8.56871758
      0.97133333	     -5.35234063	      2.11463519	     -4.00867371	     -0.07680240	      0.87351112	      0.34620395	     -6.68952691	      0.91227978	     -1.93375498	    -27.17480384	     20.91285483	     14.27969276	     19.07311747	     32.85793565	      2.73587893	     -7.17625698	    -23.87388648	      3.63423119	     -7.37907987	      1.04255463	     -2.11396109	     -2.96403417	      8.40960471
      0.97550000	     -5.34608107	      2.26037439	     -3.99004864	     -0.07081812	      0.87324515	      0.34582638	     -6.24662357	      0.58688287	     -2.16016684	    -28.81964290	     20.25553170	     14.67621044	     19.77381443	     32.72302733	      2.98299909	     -7.06065520	    -24.38726297	      3.66676820	     -7.79305012	      1.10918174	     -2.05793721	     -3.18579950	      8.22911777
      0.97966667	     -5.37063866	      2.37830781	     -3.95461582	     -0.06486960	      0.87298657	      0.34549895	     -5.73835964	      0.30928508	     -2.33006084	    -30.49393598	     19.39864281	     14.80738776	     23.67174883	     32.66037985	      3.17123651	     -7.02988430	    -24.99905794	      3.75305101	     -7.97567359	      1.41407841	     -1.96190336	     -3.40400410	      8.05373429
      0.98383333	     -5.36455352	      2.50597118	     -3.91972635	     -0.05893151	      0.87284053	      0.34513599	     -5.21410334	     -0.00312879	     -2.53001783	    -32.24375255	     18.55695317	     15.13523618	     23.74796152	     32.55664486	      3.36789343	     -7.01824064	    -25.60668713	      3.91311908	     -8.09770384	      1.42409041	     -1.90724204	     -3.62005967	      7.85468732
      0.98800000	     -5.33165002	      2.65607382	     -3.87508048	     -0.05300734	      0.87280313	      0.34473011	     -4.67486975	     -0.35723700	     -2.74902648	    -34.04993241	     17.63521594	     15.43395095	     23.88551960	     32.40034765	      3.60412606	     -6.96637144	    -26.16639848	      4.10118360	     -8.27140645	      1.43318079	     -1.88688470	     -3.85696136	      7.65204387
      0.99216667	     -5.27977889	      2.81802320	     -3.82054801	     -0.04711632	      0.87285301	      0.34430664	     -4.11691283	     -0.73608124	     -2.97090038	    -35.89782803	     16.64156324	     15.75348836	     24.12938901	     32.21458647	      3.86136548	     -6.88892377	    -26.71079341	      4.33386956	     -8.47044288	      1.44161004	     -1.90467304	     -4.14092321	      7.43172295
      0.99633333	     -5.16260674	      3.02372329	     -3.72809564	     -0.04118671	      0.87310122	      0.34373859	     -3.60904919	     -1.20053199	     -3.28728885	    -37.75312250	     15.50411425	     16.07249796	     25.49758588	     31.89575454	      4.22222623	     -6.68881331	    -27.11522678	      4.50400002	     -8.82991682	      1.43387408	     -1.99423979	     -4.44139941	      7.17346790
